<svg id="Layer_1" data-name="Layer 1" xmlns="http://www.w3.org/2000/svg" viewBox="0 0 424.59 61.85"><defs><style>.cls-1{font-size:48px;fill:#999;font-family:Lato-Light, Lato;letter-spacing:0.05em;}.cls-2{letter-spacing:0.05em;}.cls-3,.cls-4,.cls-5,.cls-6{fill:#58595b;}.cls-3{letter-spacing:0.05em;}.cls-4{letter-spacing:0.03em;}.cls-5{letter-spacing:0em;}</style></defs><title>jglogo</title><text class="cls-1" transform="translate(72.35 46.45)">JU<tspan class="cls-2" x="59.5" y="0">ST</tspan><tspan x="117.77" y="0">IN </tspan><tspan class="cls-3" x="186.6" y="0">G</tspan><tspan class="cls-4" x="224.23" y="0">L</tspan><tspan class="cls-3" x="249.72" y="0">ÜC</tspan><tspan class="cls-5" x="321.76" y="0">K</tspan></text><path class="cls-6" d="M34.12,33.09a4.64,4.64,0,0,1-4.59,4.69H28.39l0,1.24h9.27V31.59H34.12Z" transform="translate(-8.61 -3.15)"/><path class="cls-6" d="M35.71,47.92v1.63A5.43,5.43,0,0,1,30.35,55h-.06a7.4,7.4,0,0,1-1.47,3.59,5,5,0,0,0,3.75,1.69,5.18,5.18,0,0,0,5.12-5.24V48H36.3a3.81,3.81,0,0,1-.59,0" transform="translate(-8.61 -3.15)"/><path class="cls-6" d="M34.25,44.34a2.07,2.07,0,0,0,2,2.09h1.39V40.56H34.25Z" transform="translate(-8.61 -3.15)"/><path class="cls-6" d="M30.81,15.77A8.48,8.48,0,0,0,29.68,20c0,.12,0,.23,0,.35h8V18.43h0a10.24,10.24,0,0,1-6.87-2.66" transform="translate(-8.61 -3.15)"/><rect class="cls-6" x="25.51" y="18.74" width="3.57" height="8.17"/><path class="cls-6" d="M52.7,21.34a6.47,6.47,0,0,1,3.09,5.53V28.1a7.43,7.43,0,0,0,5.11-2.05v-.19a8.41,8.41,0,0,0-3.84-7.09,5.62,5.62,0,0,0-4.36,2.57" transform="translate(-8.61 -3.15)"/><path class="cls-6" d="M23.21,48.38h-.13a5.61,5.61,0,0,1-3.63,4.19,8.86,8.86,0,0,0,7.8,5.55,5.76,5.76,0,0,0,1.59-4,5.7,5.7,0,0,0-5.63-5.76" transform="translate(-8.61 -3.15)"/><path class="cls-6" d="M32.89,7.76a4.74,4.74,0,0,0-3.88,2,9,9,0,0,0,8.67,7.11h0V12.66a4.85,4.85,0,0,0-4.8-4.9" transform="translate(-8.61 -3.15)"/><path class="cls-6" d="M21.69,47.24s0-1.63,0-1.63a5.33,5.33,0,0,0-5.26-5.38,5.2,5.2,0,0,0-1.73.3,9.06,9.06,0,0,0-.58,3.18,8.85,8.85,0,0,0,4.21,7.57,4.08,4.08,0,0,0,3.35-4" transform="translate(-8.61 -3.15)"/><path class="cls-6" d="M28.19,40.56a5.23,5.23,0,0,1-5,3.78v2.5a7.2,7.2,0,0,1,7.1,6.66h0a3.91,3.91,0,0,0,3.86-4V47.27a3.65,3.65,0,0,1-1.46-2.93V40.56Z" transform="translate(-8.61 -3.15)"/><path class="cls-6" d="M25.58,20.63a6.13,6.13,0,0,1,1.82-.28h.79c0-.12,0-.23,0-.35a10.06,10.06,0,0,1,1.54-5.36,10.86,10.86,0,0,1-1.94-3.59,7,7,0,0,0-6.66,6.29,7.17,7.17,0,0,1,4.46,3.29" transform="translate(-8.61 -3.15)"/><path class="cls-6" d="M32.62,21.88H29.73v.44a7.19,7.19,0,0,1-7.1,7.25h0v3.52a3.13,3.13,0,0,0,3.09,3.16h1.2c0-.11,0-.22,0-.34a5.8,5.8,0,0,1,5.73-5.86Z" transform="translate(-8.61 -3.15)"/><path class="cls-6" d="M16.44,38.69a6.77,6.77,0,0,1,6.18,4.12h.59a3.74,3.74,0,0,0,3.65-3.19l0-1.84H25.41a4.65,4.65,0,0,1-4.29-4.4V29.56a8.89,8.89,0,0,1-5.63-2A9.59,9.59,0,0,0,14.61,39a6.86,6.86,0,0,1,1.83-.26" transform="translate(-8.61 -3.15)"/><path class="cls-6" d="M22.61,26.79h0V28h0a5.65,5.65,0,0,0,5.59-5.72v-.44H27.4a4.86,4.86,0,0,0-4.79,4.91" transform="translate(-8.61 -3.15)"/><path class="cls-6" d="M21.11,28V26.78a6.46,6.46,0,0,1,3.09-5.53,5.63,5.63,0,0,0-4.37-2.56A8.42,8.42,0,0,0,16,25.78c0,.07,0,.13,0,.19A7.4,7.4,0,0,0,21.11,28" transform="translate(-8.61 -3.15)"/><path class="cls-6" d="M28.41,36.25h1.12a3.12,3.12,0,0,0,3.09-3.16v-1.5a4.28,4.28,0,0,0-4.23,4.32c0,.12,0,.23,0,.34" transform="translate(-8.61 -3.15)"/><path class="cls-6" d="M48.5,37.87H47.36a4.65,4.65,0,0,1-4.59-4.7v-1.5H39.2v7.44h9.28l0-1.24" transform="translate(-8.61 -3.15)"/><path class="cls-6" d="M51.19,36.33h0a3.12,3.12,0,0,0,3.09-3.16V29.66h0a7.18,7.18,0,0,1-7.09-7.25V22h-2.9v8.16A5.81,5.81,0,0,1,50,36c0,.12,0,.23,0,.34Z" transform="translate(-8.61 -3.15)"/><path class="cls-6" d="M53.82,48.47h-.13a5.7,5.7,0,0,0-5.64,5.76,5.8,5.8,0,0,0,1.59,4,8.87,8.87,0,0,0,7.8-5.56,5.6,5.6,0,0,1-3.62-4.18" transform="translate(-8.61 -3.15)"/><path class="cls-6" d="M46.55,55.12a5.44,5.44,0,0,1-5.37-5.49V48a3.68,3.68,0,0,1-.58,0H39.2v7.11a5.17,5.17,0,0,0,5.12,5.23,5,5,0,0,0,3.76-1.69,7.18,7.18,0,0,1-1.47-3.59h-.06" transform="translate(-8.61 -3.15)"/><path class="cls-6" d="M64.27,43.8A10.43,10.43,0,0,1,59,52.89a10.3,10.3,0,0,1-9.7,6.87h-.1a6.52,6.52,0,0,1-10.74-1.53,6.61,6.61,0,0,1-5.86,3.61,6.55,6.55,0,0,1-4.85-2.16h-.09a10.32,10.32,0,0,1-9.71-6.87,10.43,10.43,0,0,1-5.3-9.09,10.32,10.32,0,0,1,.75-3.89,11,11,0,0,1-1.75-6,11.19,11.19,0,0,1,2.88-7.48c0-.19,0-.38,0-.57A9.89,9.89,0,0,1,19.64,17a8.53,8.53,0,0,1,7.75-7.51l0,0a6.24,6.24,0,0,1,11,.19,6.23,6.23,0,0,1,11-.11s0,0,0,0a8.52,8.52,0,0,1,7.75,7.51,9.92,9.92,0,0,1,5.16,8.76c0,.18,0,.37,0,.56a11.2,11.2,0,0,1,2.88,7.49,11.05,11.05,0,0,1-1.74,6,10.51,10.51,0,0,1,.74,3.89m4-9.88a14.23,14.23,0,0,0-2.87-8.6A13,13,0,0,0,60,15.19a11.58,11.58,0,0,0-8.72-8.44A9.28,9.28,0,0,0,44,3.23a9.14,9.14,0,0,0-5.5,1.84,9.13,9.13,0,0,0-5.61-1.92,9.25,9.25,0,0,0-7.22,3.52A11.55,11.55,0,0,0,17,15.11a13,13,0,0,0-5.46,10.13,14.3,14.3,0,0,0-1.41,14.92,13.63,13.63,0,0,0-.46,3.56,13.49,13.49,0,0,0,5.91,11.2,13.23,13.23,0,0,0,11,7.78,9.45,9.45,0,0,0,11.9.22,9.48,9.48,0,0,0,12-.13,13.25,13.25,0,0,0,11-7.79,13.49,13.49,0,0,0,5.91-11.2,13.75,13.75,0,0,0-.47-3.56,14.17,14.17,0,0,0,1.47-6.32" transform="translate(-8.61 -3.15)"/><path class="cls-6" d="M60.46,40.31a5.33,5.33,0,0,0-5.27,5.38v1.63a4.07,4.07,0,0,0,3.35,4,8.92,8.92,0,0,0,3.63-10.74,5,5,0,0,0-1.72-.31" transform="translate(-8.61 -3.15)"/><path class="cls-6" d="M61.41,27.62a8.86,8.86,0,0,1-5.62,2l0,3.81a4.65,4.65,0,0,1-4.29,4.4l-1.47,0,0,1.83a3.73,3.73,0,0,0,3.66,3.19h.58a6.79,6.79,0,0,1,6.19-4.12,6.59,6.59,0,0,1,1.83.27,9.59,9.59,0,0,0-.88-11.42" transform="translate(-8.61 -3.15)"/><path class="cls-6" d="M40.6,46.51a2.06,2.06,0,0,0,2-2.08V40.64H39.2v5.87Z" transform="translate(-8.61 -3.15)"/><path class="cls-6" d="M44.27,31.67v1.5a3.13,3.13,0,0,0,3.09,3.16h1.13c0-.11,0-.22,0-.34a4.28,4.28,0,0,0-4.23-4.32" transform="translate(-8.61 -3.15)"/><rect class="cls-6" x="30.59" y="18.82" width="3.57" height="8.17"/><path class="cls-6" d="M54.28,26.87h0A4.84,4.84,0,0,0,49.49,22h-.82v.44a5.66,5.66,0,0,0,5.59,5.71h0Z" transform="translate(-8.61 -3.15)"/><path class="cls-6" d="M44.14,40.64v3.79a3.64,3.64,0,0,1-1.45,2.92v2.29h0a3.9,3.9,0,0,0,3.86,3.94h0a7.22,7.22,0,0,1,7.11-6.66V44.43a5.24,5.24,0,0,1-5-3.79Z" transform="translate(-8.61 -3.15)"/><path class="cls-6" d="M47.21,20.08a8.54,8.54,0,0,0-1.13-4.23,10.19,10.19,0,0,1-6.87,2.66h0v1.92h8c0-.12,0-.23,0-.35" transform="translate(-8.61 -3.15)"/><path class="cls-6" d="M48.71,20.08c0,.12,0,.23,0,.35h.79a6.08,6.08,0,0,1,1.82.28,7.2,7.2,0,0,1,4.47-3.29,7,7,0,0,0-6.67-6.29,10.59,10.59,0,0,1-1.94,3.59,10,10,0,0,1,1.54,5.36" transform="translate(-8.61 -3.15)"/><path class="cls-6" d="M47.88,9.87a4.74,4.74,0,0,0-3.88-2,4.86,4.86,0,0,0-4.8,4.9V17h0a9,9,0,0,0,8.67-7.11" transform="translate(-8.61 -3.15)"/></svg>